<svg width="800" height="600" viewBox="0 0 800 600" fill="none" xmlns="http://www.w3.org/2000/svg">
  <rect width="800" height="600" fill="#FFE8CC" />
  <circle cx="700" cy="100" r="60" fill="#FFBB33" />
  <path d="M0 400 Q 200 350, 400 400 Q 600 450, 800 400 L 800 600 L 0 600 Z" fill="#8FBC8F" />
  <path d="M600 250 L 650 350 L 550 350 Z" fill="#228B22" />
  <path d="M500 300 L 550 400 L 450 400 Z" fill="#228B22" />
  <path d="M700 280 L 750 380 L 650 380 Z" fill="#228B22" />
  <path d="M150 320 Q 175 250, 200 320 Q 225 250, 250 320 Q 275 250, 300 320 L 300 400 L 150 400 Z" fill="#8B4513" />
  <circle cx="225" cy="200" r="80" fill="#90EE90" />
</svg>