<svg width="800" height="600" viewBox="0 0 800 600" fill="none" xmlns="http://www.w3.org/2000/svg">
  <rect width="800" height="600" fill="#1A2238" />
  <circle cx="700" cy="100" r="60" fill="#D6D6D6" />
  <circle cx="150" cy="150" r="2" fill="white" />
  <circle cx="250" cy="180" r="2" fill="white" />
  <circle cx="350" cy="120" r="2" fill="white" />
  <circle cx="450" cy="170" r="2" fill="white" />
  <circle cx="550" cy="130" r="2" fill="white" />
  <circle cx="650" cy="190" r="2" fill="white" />
  <circle cx="750" cy="220" r="2" fill="white" />
  <circle cx="200" cy="230" r="2" fill="white" />
  <circle cx="300" cy="270" r="2" fill="white" />
  <circle cx="400" cy="210" r="2" fill="white" />
  <circle cx="500" cy="260" r="2" fill="white" />
  <circle cx="600" cy="220" r="2" fill="white" />
  <circle cx="100" cy="200" r="2" fill="white" />
  <path d="M0 400 Q 200 350, 400 400 Q 600 450, 800 400 L 800 600 L 0 600 Z" fill="#2E3D59" />
  <path d="M600 250 L 650 350 L 550 350 Z" fill="#1A2C42" />
  <path d="M500 300 L 550 400 L 450 400 Z" fill="#1A2C42" />
  <path d="M700 280 L 750 380 L 650 380 Z" fill="#1A2C42" />
  <path d="M150 320 Q 175 250, 200 320 Q 225 250, 250 320 Q 275 250, 300 320 L 300 400 L 150 400 Z" fill="#2C3E50" />
  <circle cx="225" cy="200" r="80" fill="#1A2C42" />
</svg>