<svg xmlns="http://www.w3.org/2000/svg" width="32" height="32" viewBox="0 0 32 32" fill="none">
<path d="M29.8842 6.14743L16.8533 27.8195C16.6264 28.1795 16.1053 28.1551 15.9112 27.7795L2.14454 6.15179C1.92626 6.73271 1.81454 7.36249 1.81454 8.01809V23.9819C1.81454 27.2975 4.49902 29.982 7.81454 29.982H24.1855C27.501 29.982 30.1855 27.2975 30.1855 23.9819V8.01809C30.1855 7.35222 30.0709 6.71347 29.8842 6.14743Z" fill="#673AB7"/>
<path d="M16.2354 3.08057C16.0534 2.98548 15.8366 2.98649 15.6553 3.08315L2.51801 6.28223C2.84846 5.69983 3.29346 5.18895 3.82764 4.78217L15.3945 2.0195C15.7903 1.92474 16.2097 1.92474 16.6055 2.0195L28.1724 4.78217C28.7138 5.19345 29.1633 5.71123 29.4954 6.30243L16.2354 3.08057Z" fill="#FF9800"/>
<path d="M15.9727 16.0039C18.8829 16.0039 21.2453 13.6414 21.2453 10.7312C21.2453 7.82101 18.8829 5.45856 15.9727 5.45856C13.0625 5.45856 10.7 7.82101 10.7 10.7312C10.7 13.6414 13.0625 16.0039 15.9727 16.0039Z" fill="#FFC107"/>
</svg>